<svg width="16" height="16" viewBox="0 0 16 16" fill="none" xmlns="http://www.w3.org/2000/svg">
<path fill-rule="evenodd" clip-rule="evenodd" d="M9.01123 1.91455C9.01123 1.22419 8.45159 0.664551 7.76123 0.664551C7.07088 0.664551 6.51123 1.22419 6.51123 1.91455V6.91455H1.51123C0.820875 6.91455 0.26123 7.47419 0.26123 8.16455C0.26123 8.8549 0.820874 9.41455 1.51123 9.41455H6.51123V14.4145C6.51123 15.1049 7.07088 15.6645 7.76123 15.6645C8.45159 15.6645 9.01123 15.1049 9.01123 14.4145V9.41455H14.0112C14.7016 9.41455 15.2612 8.8549 15.2612 8.16455C15.2612 7.47419 14.7016 6.91455 14.0112 6.91455H9.01123V1.91455Z" fill="white"/>
</svg>
