<svg width="24" height="24" viewBox="0 0 24 24" fill="none" xmlns="http://www.w3.org/2000/svg">
<g clip-path="url(#clip0_736_628)">
<path d="M0.839999 4.07037C0.376799 4.07037 0.00119734 3.69597 0.00119734 3.23517C0.00151206 3.12518 0.0234907 3.01632 0.0658751 2.91482C0.108259 2.81332 0.17022 2.72116 0.248221 2.6436C0.326222 2.56605 0.418737 2.50461 0.52048 2.46281C0.622223 2.42101 0.731204 2.39966 0.841199 2.39997L23.1564 2.39997C23.2664 2.39966 23.3754 2.42101 23.4771 2.46281C23.5789 2.50461 23.6714 2.56605 23.7494 2.6436C23.8274 2.72116 23.8893 2.81332 23.9317 2.91482C23.9741 3.01632 23.9961 3.12518 23.9964 3.23517C23.9964 3.69597 23.6196 4.07037 23.1564 4.07037L0.839999 4.07037ZM8.574 16.2096C8.49597 16.2873 8.40337 16.3488 8.30153 16.3907C8.19968 16.4326 8.09057 16.454 7.98045 16.4536C7.87033 16.4533 7.76136 16.4313 7.65977 16.3888C7.55817 16.3463 7.46596 16.2841 7.3884 16.206C6.06358 14.8812 5.32081 14.1384 3.996 12.8136C3.83848 12.657 3.74962 12.4442 3.74894 12.2221C3.74827 12 3.83584 11.7867 3.9924 11.6292L7.3668 8.25477C7.52435 8.09821 7.73763 8.01064 7.95974 8.01132C8.18185 8.01199 8.3946 8.10086 8.5512 8.25837C8.70871 8.41497 8.79758 8.62772 8.79825 8.84983C8.79893 9.07194 8.71136 9.28522 8.5548 9.44277L5.7708 12.2268L8.5692 15.0252C8.72671 15.1818 8.81558 15.3945 8.81625 15.6166C8.81693 15.8387 8.72936 16.052 8.5728 16.2096M11.4684 13.0428C11.004 13.0428 10.6284 12.6684 10.6284 12.2076C10.6287 12.0976 10.6507 11.9887 10.6931 11.8872C10.7355 11.7857 10.7974 11.6936 10.8754 11.616C10.9534 11.5384 11.0459 11.477 11.1477 11.4352C11.2494 11.3934 11.3584 11.3721 11.4684 11.3724L23.16 11.3724C23.27 11.3721 23.379 11.3934 23.4807 11.4352C23.5825 11.477 23.675 11.5384 23.753 11.616C23.831 11.6936 23.8929 11.7857 23.9353 11.8872C23.9777 11.9887 23.9997 12.0976 24 12.2076C24 12.6684 23.6244 13.0428 23.16 13.0428L11.4684 13.0428ZM0.839999 21.6C0.375599 21.6 0 21.2256 0 20.7648C0.000314721 20.6548 0.0222891 20.5459 0.0646734 20.4444C0.107058 20.3429 0.169021 20.2508 0.247022 20.1732C0.325023 20.0956 0.417535 20.0342 0.519279 19.9924C0.621022 19.9506 0.730004 19.9293 0.839999 19.9296L23.1564 19.9296C23.2664 19.9293 23.3754 19.9506 23.4771 19.9924C23.5789 20.0342 23.6714 20.0956 23.7494 20.1732C23.8274 20.2508 23.8893 20.3429 23.9317 20.4444C23.9741 20.5459 23.9961 20.6548 23.9964 20.7648C23.9964 21.2256 23.6196 21.6 23.1564 21.6L0.839999 21.6Z" fill="#F3F4F4"/>
</g>
<defs>
<clipPath id="clip0_736_628">
<rect width="24" height="24" fill="white" transform="matrix(-1 0 0 -1 24 24)"/>
</clipPath>
</defs>
</svg>
