<svg width="24" height="24" viewBox="0 0 24 24" fill="none" xmlns="http://www.w3.org/2000/svg">
<g clip-path="url(#clip0_784_623)">
<path d="M23.16 19.9296C23.6232 19.9296 23.9988 20.304 23.9988 20.7648C23.9985 20.8748 23.9765 20.9837 23.9341 21.0852C23.8917 21.1867 23.8298 21.2788 23.7518 21.3564C23.6738 21.434 23.5813 21.4954 23.4795 21.5372C23.3778 21.579 23.2688 21.6003 23.1588 21.6H0.8436C0.733605 21.6003 0.624624 21.579 0.522881 21.5372C0.421138 21.4954 0.328625 21.434 0.250623 21.3564C0.172622 21.2788 0.11066 21.1867 0.068276 21.0852C0.0258917 20.9837 0.00391472 20.8748 0.0036 20.7648C0.0036 20.304 0.3804 19.9296 0.8436 19.9296H23.16ZM15.426 7.79043C15.504 7.71272 15.5966 7.65117 15.6985 7.6093C15.8003 7.56742 15.9094 7.54603 16.0195 7.54637C16.1297 7.5467 16.2386 7.56875 16.3402 7.61124C16.4418 7.65374 16.534 7.71585 16.6116 7.79403C17.9364 9.11884 18.6792 9.86161 20.004 11.1864C20.1615 11.343 20.2504 11.5558 20.2511 11.7779C20.2517 12 20.1642 12.2133 20.0076 12.3708L16.6332 15.7452C16.4757 15.9018 16.2624 15.9894 16.0403 15.9887C15.8181 15.988 15.6054 15.8991 15.4488 15.7416C15.2913 15.585 15.2024 15.3723 15.2017 15.1502C15.2011 14.9281 15.2886 14.7148 15.4452 14.5572L18.2292 11.7732L15.4308 8.97483C15.2733 8.81823 15.1844 8.60548 15.1837 8.38337C15.1831 8.16126 15.2706 7.94798 15.4272 7.79043M12.5316 10.9572C12.996 10.9572 13.3716 11.3316 13.3716 11.7924C13.3713 11.9024 13.3493 12.0113 13.3069 12.1128C13.2645 12.2143 13.2026 12.3064 13.1246 12.384C13.0466 12.4616 12.9541 12.523 12.8523 12.5648C12.7506 12.6066 12.6416 12.6279 12.5316 12.6276H0.84C0.730005 12.6279 0.621024 12.6066 0.519281 12.5648C0.417538 12.523 0.325025 12.4616 0.247023 12.384C0.169022 12.3064 0.10706 12.2143 0.064676 12.1128C0.0222917 12.0113 0.000314721 11.9024 0 11.7924C0 11.3316 0.3756 10.9572 0.84 10.9572H12.5316ZM23.16 2.40002C23.6244 2.40002 24 2.77442 24 3.23522C23.9997 3.34522 23.9777 3.45408 23.9353 3.55558C23.8929 3.65708 23.831 3.74924 23.753 3.8268C23.675 3.90435 23.5825 3.96578 23.4807 4.00759C23.379 4.04939 23.27 4.07074 23.16 4.07042H0.8436C0.733605 4.07074 0.624624 4.04939 0.522881 4.00759C0.421138 3.96578 0.328625 3.90435 0.250623 3.8268C0.172622 3.74924 0.11066 3.65708 0.068276 3.55558C0.0258917 3.45408 0.00391472 3.34522 0.0036 3.23522C0.0036 2.77442 0.3804 2.40002 0.8436 2.40002H23.16Z" fill="#F3F4F4"/>
</g>
<defs>
<clipPath id="clip0_784_623">
<rect width="24" height="24" fill="white"/>
</clipPath>
</defs>
</svg>
