<svg width="18" height="17" viewBox="0 0 18 17" fill="none" xmlns="http://www.w3.org/2000/svg">
<path d="M1 2.6C1 2.17565 1.16857 1.76869 1.46863 1.46863C1.76869 1.16857 2.17565 1 2.6 1H7.4V15.4H2.6C2.17565 15.4 1.76869 15.2314 1.46863 14.9314C1.16857 14.6313 1 14.2243 1 13.8V2.6ZM10.6 1H15.4C15.8243 1 16.2313 1.16857 16.5314 1.46863C16.8314 1.76869 17 2.17565 17 2.6V6.6H10.6V1ZM10.6 9.8H17V13.8C17 14.2243 16.8314 14.6313 16.5314 14.9314C16.2313 15.2314 15.8243 15.4 15.4 15.4H10.6V9.8Z" stroke="#11263C" stroke-width="1.5" stroke-linecap="round" stroke-linejoin="round"/>
</svg>
