<svg width="18" height="18" viewBox="0 0 18 18" fill="none" xmlns="http://www.w3.org/2000/svg">
<g clip-path="url(#clip0_808_2173)">
<path d="M10.5 15.9375H7.5V17.0625H10.5V15.9375ZM2.0625 10.5V7.49998H0.937501V10.5H2.0625ZM15.9375 10.1722V10.5H17.0625V10.1722H15.9375ZM11.1683 3.45823L14.1375 6.13048L14.8898 5.29348L11.9213 2.62123L11.1683 3.45823ZM17.0625 10.1722C17.0625 8.90548 17.0738 8.10298 16.755 7.38598L15.7268 7.84423C15.9263 8.29273 15.9375 8.80648 15.9375 10.1722H17.0625ZM14.1375 6.13048C15.1523 7.04398 15.5273 7.39648 15.7268 7.84423L16.755 7.38598C16.4355 6.66823 15.8318 6.14098 14.8898 5.29348L14.1375 6.13048ZM7.5225 2.06248C8.709 2.06248 9.15675 2.07148 9.555 2.22448L9.9585 1.17448C9.3195 0.928481 8.6235 0.937481 7.5225 0.937481V2.06248ZM11.9213 2.62198C11.1068 1.88923 10.5975 1.41898 9.9585 1.17448L9.55575 2.22448C9.95475 2.37748 10.2908 2.66848 11.1683 3.45823L11.9213 2.62198ZM7.5 15.9375C6.06975 15.9375 5.05425 15.936 4.2825 15.8325C3.52875 15.7312 3.09375 15.5407 2.7765 15.2235L1.9815 16.0185C2.5425 16.581 3.25425 16.8292 4.13325 16.9477C4.99575 17.064 6.102 17.0625 7.5 17.0625V15.9375ZM0.937501 10.5C0.937501 11.898 0.936001 13.0035 1.05225 13.8667C1.17075 14.7457 1.41975 15.4575 1.98075 16.0192L2.77575 15.2242C2.45925 14.9062 2.26875 14.4712 2.1675 13.7167C2.064 12.9465 2.0625 11.9302 2.0625 10.5H0.937501ZM10.5 17.0625C11.898 17.0625 13.0035 17.064 13.8668 16.9477C14.7458 16.8292 15.4575 16.5802 16.0193 16.0192L15.2243 15.2242C14.9063 15.5407 14.4713 15.7312 13.7168 15.8325C12.9465 15.936 11.9303 15.9375 10.5 15.9375V17.0625ZM15.9375 10.5C15.9375 11.9302 15.936 12.9465 15.8325 13.7175C15.7313 14.4712 15.5408 14.9062 15.2235 15.2235L16.0185 16.0185C16.581 15.4575 16.8293 14.7457 16.9478 13.8667C17.064 13.0042 17.0625 11.898 17.0625 10.5H15.9375ZM2.0625 7.49998C2.0625 6.06973 2.064 5.05423 2.1675 4.28248C2.26875 3.52873 2.45925 3.09373 2.7765 2.77648L1.9815 1.98148C1.419 2.54248 1.17075 3.25423 1.05225 4.13323C0.936001 4.99573 0.937501 6.10198 0.937501 7.49998H2.0625ZM7.5225 0.937481C6.11625 0.937481 5.0055 0.935981 4.13925 1.05223C3.2565 1.17073 2.5425 1.41973 1.98075 1.98073L2.77575 2.77573C3.09375 2.45923 3.5295 2.26873 4.2885 2.16748C5.06325 2.06398 6.08475 2.06248 7.5225 2.06248V0.937481Z" fill="white"/>
<path d="M9.75 1.875V3.75C9.75 5.51775 9.75 6.402 10.299 6.951C10.848 7.5 11.7322 7.5 13.5 7.5H16.5" stroke="white" stroke-width="1.5"/>
<path d="M6 6V14M6 14L8 11.4737M6 14L4 11.4737" stroke="white" stroke-width="1.5" stroke-linecap="round" stroke-linejoin="round"/>
</g>
<defs>
<clipPath id="clip0_808_2173">
<rect width="18" height="18" fill="white"/>
</clipPath>
</defs>
</svg>
