<svg width="17" height="15" viewBox="0 0 17 15" fill="none" xmlns="http://www.w3.org/2000/svg">
<path d="M14.7603 2.1497C14.396 1.78521 13.9634 1.49607 13.4873 1.2988C13.0112 1.10153 12.5009 1 11.9856 1C11.4703 1 10.96 1.10153 10.4839 1.2988C10.0078 1.49607 9.57521 1.78521 9.2109 2.1497L8.45481 2.90579L7.69872 2.1497C6.96282 1.4138 5.96473 1.00038 4.92402 1.00038C3.88331 1.00038 2.88522 1.4138 2.14932 2.1497C1.41342 2.8856 1 3.88369 1 4.9244C1 5.96512 1.41342 6.96321 2.14932 7.6991L2.90541 8.45519L8.45481 14.0046L14.0042 8.45519L14.7603 7.6991C15.1248 7.33479 15.4139 6.90222 15.6112 6.42613C15.8085 5.95004 15.91 5.43975 15.91 4.9244C15.91 4.40906 15.8085 3.89876 15.6112 3.42267C15.4139 2.94658 15.1248 2.51402 14.7603 2.1497Z" stroke="#11263C" stroke-width="1.5" stroke-linecap="round" stroke-linejoin="round"/>
</svg>
