<svg width="52" height="52" viewBox="0 0 52 52" fill="none" xmlns="http://www.w3.org/2000/svg">
<g clip-path="url(#clip0_921_1903)">
<circle cx="26" cy="26" r="26" fill="#C2D6BB"/>
<path d="M25.5463 30.6851L30.8356 25.5129M25.5463 27.5818L19.1992 21.375M25.5463 42V20.3406" stroke="#11263C" stroke-linecap="round" stroke-linejoin="round"/>
<path d="M35.3173 27.4266C35.6527 28.2359 35.827 29.0984 35.8337 29.9692C35.8339 30.848 35.6544 31.7182 35.3053 32.5301C34.9563 33.342 34.4445 34.0797 33.7993 34.7011C33.1541 35.3225 32.3881 35.8153 31.5451 36.1515C30.702 36.4877 29.7985 36.6606 28.886 36.6603C27.8538 36.6556 26.8361 36.4266 25.9086 35.9905C24.981 36.4266 23.9633 36.6556 22.9311 36.6603C22.0187 36.6606 21.1151 36.4877 20.272 36.1515C19.429 35.8153 18.663 35.3225 18.0178 34.7011C17.3726 34.0797 16.8608 33.342 16.5118 32.5301C16.1627 31.7182 15.9832 30.848 15.9834 29.9692C15.9901 29.0975 16.1644 28.2359 16.4998 27.4275C15.5942 26.7047 14.8953 25.7711 14.4692 24.7153C14.0431 23.6595 13.904 22.5164 14.0651 21.3944C14.2262 20.2723 14.6821 19.2084 15.3896 18.3035C16.0971 17.3986 17.0329 16.6828 18.1081 16.2237C18.4522 14.4737 19.4199 12.8943 20.8441 11.758C22.2682 10.6218 24.0596 10 25.909 10C27.7584 10 29.5498 10.6218 30.974 11.758C32.3982 12.8943 33.3658 14.4737 33.7099 16.2237C34.7851 16.6828 35.7208 17.3988 36.4282 18.3037C37.1357 19.2087 37.5915 20.2725 37.7524 21.3946C37.9134 22.5167 37.7742 23.6597 37.3481 24.7155C36.9219 25.7713 36.2229 26.7038 35.3173 27.4266Z" stroke="#11263C" stroke-width="2" stroke-linecap="round" stroke-linejoin="round"/>
</g>
<defs>
<clipPath id="clip0_921_1903">
<rect width="52" height="52" fill="white"/>
</clipPath>
</defs>
</svg>
