<svg width="30" height="32" viewBox="0 0 30 32" fill="none" xmlns="http://www.w3.org/2000/svg">
<path d="M17.9615 26.7999C17.9307 23.9842 16.1318 20.9365 13.0079 18.9794C9.8841 17.0222 5.66458 15.9497 1.27761 15.9977C3.44982 15.9739 5.59775 15.6758 7.59878 15.1203C9.5998 14.5648 11.4147 13.7628 12.9399 12.7602C14.4651 11.7575 15.6707 10.5738 16.4879 9.27661C17.3051 7.97943 17.7179 6.59418 17.7026 5.19996" stroke="#1C4233" stroke-width="2" stroke-linecap="round" stroke-linejoin="round"/>
<path d="M28.4617 1.00024C28.4617 2.80024 28.4617 4.00024 25.7617 4.30025L11.7786 5.20022C8.9628 5.23101 6.27461 6.37909 4.30534 8.39191C2.33607 10.4047 1.24704 13.1174 1.27783 15.9331C1.19501 17.9066 2.08686 20.1512 2.71405 21.2764" stroke="#F1F4EF" stroke-width="2" stroke-linecap="round" stroke-linejoin="round"/>
<path d="M28.4617 30.7002C28.4617 28.9002 28.4617 27.7499 25.7617 27.4499L11.7786 26.5499C8.9628 26.5192 6.27461 25.3711 4.30534 23.3583C2.33607 21.3455 1.24704 18.6328 1.27783 15.817C1.29678 14.0838 2.0617 11.2002 2.54583 10.9002" stroke="#F1F4EF" stroke-width="2" stroke-linecap="square" stroke-linejoin="round"/>
<path d="M28.7612 1H8.99753C-1.60013 1 -1.73135 13.2038 8.99753 13.2038H14.8825C14.8825 13.2038 20.5028 13 23.9612 16C20.3612 19.6 14.8825 19.3056 14.8825 19.3056H8.99753C-1.90013 19.3056 -1.30013 30.7 8.99753 30.7H28.7612" stroke="#F1F4EF" stroke-width="2"/>
</svg>
