<svg width="18" height="18" viewBox="0 0 18 18" fill="none" xmlns="http://www.w3.org/2000/svg">
<g clip-path="url(#clip0_728_498)">
<path d="M2.61501 9.91842C3.03895 7.79632 3.25132 6.73685 3.95159 6.05316C4.08101 5.9272 4.22099 5.81257 4.37001 5.71053C5.17764 5.1579 6.25922 5.1579 8.42238 5.1579H9.76685C11.9292 5.1579 13.01 5.1579 13.8168 5.71053C13.9668 5.81316 14.1066 5.92842 14.2353 6.05395C14.9363 6.73685 15.1487 7.79711 15.5726 9.91764C16.1813 12.9618 16.4861 14.484 15.785 15.5624C15.6587 15.7582 15.5103 15.939 15.3429 16.1016C14.4224 17 12.8711 17 9.76685 17H8.42238C5.31738 17 3.76527 17 2.84474 16.1016C2.67819 15.9387 2.53018 15.7578 2.40343 15.5624C1.70238 14.484 2.00711 12.9618 2.61659 9.91764L2.61501 9.91842Z" stroke="#11263C" stroke-width="1.5"/>
<path d="M11.5016 7.52635C11.5016 7.54815 11.4839 7.56582 11.4621 7.56582C11.4403 7.56582 11.4227 7.54815 11.4227 7.52635C11.4227 7.50455 11.4403 7.48688 11.4621 7.48688C11.4839 7.48688 11.5016 7.50455 11.5016 7.52635Z" fill="#11263C" stroke="#11263C" stroke-width="1.5"/>
<path d="M6.76413 7.52635C6.76413 7.54815 6.74646 7.56582 6.72465 7.56582C6.70285 7.56582 6.68518 7.54815 6.68518 7.52635C6.68518 7.50455 6.70285 7.48688 6.72465 7.48688C6.74646 7.48688 6.76413 7.50455 6.76413 7.52635Z" fill="#11263C" stroke="#11263C" stroke-width="1.5"/>
<path d="M6.72546 5.15789V4.36842C6.72546 3.74028 6.97499 3.13786 7.41916 2.69369C7.86332 2.24953 8.46574 2 9.09389 2C9.72203 2 10.3244 2.24953 10.7686 2.69369C11.2128 3.13786 11.4623 3.74028 11.4623 4.36842V5.15789" stroke="#11263C" stroke-width="1.5" stroke-linecap="round"/>
</g>
<defs>
<clipPath id="clip0_728_498">
<rect width="18" height="18" fill="white"/>
</clipPath>
</defs>
</svg>
