<svg width="18" height="15" viewBox="0 0 18 15" fill="none" xmlns="http://www.w3.org/2000/svg">
<path d="M1 5.79993C1 7.92166 1.84285 9.95649 3.34315 11.4568C4.84344 12.9571 6.87827 13.7999 9 13.7999C11.1217 13.7999 13.1566 12.9571 14.6569 11.4568C16.1571 9.95649 17 7.92166 17 5.79993" stroke="#11263C" stroke-width="1.5" stroke-linecap="round" stroke-linejoin="round"/>
<path d="M17 5C14.8783 5 12.8434 5.84285 11.3431 7.34315C9.84285 8.84344 9 10.8783 9 13C9 11.9494 8.79307 10.9091 8.39104 9.93853C7.989 8.96793 7.39972 8.08601 6.65685 7.34315C5.91399 6.60028 5.03207 6.011 4.06147 5.60896C3.09086 5.20693 2.05057 5 1 5" stroke="#11263C" stroke-width="1.5" stroke-linecap="round" stroke-linejoin="round"/>
<path d="M11.3921 7C11.4477 5.88678 11.2628 4.77465 10.8501 3.73929C10.4373 2.70393 9.80633 1.76964 9.00011 1C8.19389 1.76964 7.56293 2.70393 7.15016 3.73929C6.7374 4.77465 6.55252 5.88678 6.60811 7" stroke="#11263C" stroke-width="1.5" stroke-linecap="round" stroke-linejoin="round"/>
</svg>
