<svg width="52" height="52" viewBox="0 0 52 52" fill="none" xmlns="http://www.w3.org/2000/svg">
<g clip-path="url(#clip0_921_1509)">
<circle cx="26" cy="26" r="26" fill="#C2D6BB"/>
<path d="M18 21.2032C14.52 21.224 12.6352 21.392 11.4064 22.7232C10 24.2464 10 26.6976 10 31.6C10 36.5024 10 38.9536 11.4064 40.4768C12.8112 42 15.0752 42 19.6 42H32.4C36.9248 42 39.1888 42 40.5936 40.4768C41.9984 38.9536 42 36.5024 42 31.6C42 26.6976 42 24.2464 40.5936 22.7232C39.3648 21.392 37.48 21.224 34 21.2032M16.4 26L23.6 30.2M23.6 30.2L28.88 33.28M23.6 30.2L16.4 34.96M35.6 37.2L28.88 33.28M28.88 33.28L35.6 28.8M26 18C27.0609 18 28.0783 17.5786 28.8284 16.8284C29.5786 16.0783 30 15.0609 30 14C30 12.9391 29.5786 11.9217 28.8284 11.1716C28.0783 10.4214 27.0609 10 26 10C24.9391 10 23.9217 10.4214 23.1716 11.1716C22.4214 11.9217 22 12.9391 22 14C22 15.0609 22.4214 16.0783 23.1716 16.8284C23.9217 17.5786 24.9391 18 26 18ZM26 18V24.4" stroke="#11263C" stroke-width="2" stroke-linecap="round" stroke-linejoin="round"/>
</g>
<defs>
<clipPath id="clip0_921_1509">
<rect width="52" height="52" fill="white"/>
</clipPath>
</defs>
</svg>
