<svg width="14" height="14" viewBox="0 0 14 14" fill="none" xmlns="http://www.w3.org/2000/svg">
<path d="M1.75 7H12.25M1.75 7V9.625M1.75 7V4.375M12.25 7V9.625M12.25 7V4.375M1.75 9.625V11.9C1.75 11.9928 1.78687 12.0818 1.85251 12.1475C1.91815 12.2131 2.00717 12.25 2.1 12.25H11.9C11.9928 12.25 12.0818 12.2131 12.1475 12.1475C12.2131 12.0818 12.25 11.9928 12.25 11.9V9.625M1.75 9.625H12.25M1.75 4.375V2.1C1.75 2.00717 1.78687 1.91815 1.85251 1.85251C1.91815 1.78687 2.00717 1.75 2.1 1.75H11.9C11.9928 1.75 12.0818 1.78687 12.1475 1.85251C12.2131 1.91815 12.25 2.00717 12.25 2.1V4.375M1.75 4.375H12.25" stroke="#F3F4F4" stroke-width="1.5"/>
</svg>
