<svg width="14" height="14" viewBox="0 0 14 14" fill="none" xmlns="http://www.w3.org/2000/svg">
<g clip-path="url(#clip0_630_2202)">
<path fill-rule="evenodd" clip-rule="evenodd" d="M2.1875 4.8125V2.1875H4.8125V4.8125H2.1875ZM0.875 1.75C0.875 1.51794 0.967187 1.29538 1.13128 1.13128C1.29538 0.967187 1.51794 0.875 1.75 0.875H5.25C5.48206 0.875 5.70462 0.967187 5.86872 1.13128C6.03281 1.29538 6.125 1.51794 6.125 1.75V5.25C6.125 5.48206 6.03281 5.70462 5.86872 5.86872C5.70462 6.03281 5.48206 6.125 5.25 6.125H1.75C1.51794 6.125 1.29538 6.03281 1.13128 5.86872C0.967187 5.70462 0.875 5.48206 0.875 5.25V1.75ZM7.875 1.96875C7.875 1.7947 7.94414 1.62778 8.06721 1.50471C8.19028 1.38164 8.3572 1.3125 8.53125 1.3125H12.4688C12.6428 1.3125 12.8097 1.38164 12.9328 1.50471C13.0559 1.62778 13.125 1.7947 13.125 1.96875C13.125 2.1428 13.0559 2.30972 12.9328 2.43279C12.8097 2.55586 12.6428 2.625 12.4688 2.625H8.53125C8.3572 2.625 8.19028 2.55586 8.06721 2.43279C7.94414 2.30972 7.875 2.1428 7.875 1.96875ZM8.53125 4.375C8.3572 4.375 8.19028 4.44414 8.06721 4.56721C7.94414 4.69028 7.875 4.8572 7.875 5.03125C7.875 5.2053 7.94414 5.37222 8.06721 5.49529C8.19028 5.61836 8.3572 5.6875 8.53125 5.6875H12.4688C12.6428 5.6875 12.8097 5.61836 12.9328 5.49529C13.0559 5.37222 13.125 5.2053 13.125 5.03125C13.125 4.8572 13.0559 4.69028 12.9328 4.56721C12.8097 4.44414 12.6428 4.375 12.4688 4.375H8.53125ZM2.1875 9.1875V11.8125H4.8125V9.1875H2.1875ZM1.75 7.875C1.51794 7.875 1.29538 7.96719 1.13128 8.13128C0.967187 8.29538 0.875 8.51794 0.875 8.75V12.25C0.875 12.4821 0.967187 12.7046 1.13128 12.8687C1.29538 13.0328 1.51794 13.125 1.75 13.125H5.25C5.48206 13.125 5.70462 13.0328 5.86872 12.8687C6.03281 12.7046 6.125 12.4821 6.125 12.25V8.75C6.125 8.51794 6.03281 8.29538 5.86872 8.13128C5.70462 7.96719 5.48206 7.875 5.25 7.875H1.75ZM8.53125 8.3125C8.3572 8.3125 8.19028 8.38164 8.06721 8.50471C7.94414 8.62778 7.875 8.7947 7.875 8.96875C7.875 9.1428 7.94414 9.30972 8.06721 9.43279C8.19028 9.55586 8.3572 9.625 8.53125 9.625H12.4688C12.6428 9.625 12.8097 9.55586 12.9328 9.43279C13.0559 9.30972 13.125 9.1428 13.125 8.96875C13.125 8.7947 13.0559 8.62778 12.9328 8.50471C12.8097 8.38164 12.6428 8.3125 12.4688 8.3125H8.53125ZM8.53125 11.375C8.3572 11.375 8.19028 11.4441 8.06721 11.5672C7.94414 11.6903 7.875 11.8572 7.875 12.0312C7.875 12.2053 7.94414 12.3722 8.06721 12.4953C8.19028 12.6184 8.3572 12.6875 8.53125 12.6875H12.4688C12.6428 12.6875 12.8097 12.6184 12.9328 12.4953C13.0559 12.3722 13.125 12.2053 13.125 12.0312C13.125 11.8572 13.0559 11.6903 12.9328 11.5672C12.8097 11.4441 12.6428 11.375 12.4688 11.375H8.53125Z" fill="#F3F4F4"/>
</g>
<defs>
<clipPath id="clip0_630_2202">
<rect width="14" height="14" fill="white"/>
</clipPath>
</defs>
</svg>
