<svg width="24" height="24" viewBox="0 0 24 24" fill="none" xmlns="http://www.w3.org/2000/svg">
<path d="M13.2406 18.875C13.4156 18.8604 13.5652 18.791 13.6895 18.6667C13.8138 18.5425 13.8756 18.3932 13.875 18.2188C13.875 18.0146 13.8094 17.8504 13.6781 17.7261C13.5469 17.6019 13.3792 17.5473 13.175 17.5625C12.5771 17.6062 11.9427 17.442 11.2719 17.0699C10.601 16.6977 10.1781 16.0234 10.0031 15.0469C9.97396 14.8865 9.89754 14.7552 9.77388 14.6531C9.65021 14.551 9.50788 14.5 9.34688 14.5C9.14271 14.5 8.975 14.5767 8.84375 14.7301C8.7125 14.8835 8.66875 15.062 8.7125 15.2656C8.96042 16.5927 9.54375 17.5406 10.4625 18.1094C11.3813 18.6781 12.3073 18.9333 13.2406 18.875ZM13 21.5C11.0021 21.5 9.33579 20.8146 8.00113 19.4437C6.66646 18.0729 5.99942 16.3667 6 14.325C6 12.8667 6.57983 11.2806 7.7395 9.56675C8.89917 7.85292 10.6527 5.99733 13 4C15.3479 5.99792 17.1017 7.85379 18.2614 9.56763C19.421 11.2815 20.0006 12.8673 20 14.325C20 16.3667 19.3327 18.0729 17.998 19.4437C16.6633 20.8146 14.9973 21.5 13 21.5ZM13 19.75C14.5167 19.75 15.7708 19.2358 16.7625 18.2074C17.7542 17.179 18.25 15.8848 18.25 14.325C18.25 13.2604 17.8087 12.0573 16.9261 10.7156C16.0435 9.37396 14.7348 7.90833 13 6.31875C11.2646 7.90833 9.95588 9.37396 9.07388 10.7156C8.19188 12.0573 7.75058 13.2604 7.75 14.325C7.75 15.8854 8.24583 17.1798 9.2375 18.2083C10.2292 19.2367 11.4833 19.7506 13 19.75Z" fill="#11263C"/>
</svg>
